# xmcd CD database file
#
# Track frame offsets:
#	150
#	6234
#	26890
#	41960
#	64260
#	88650
#	111548
#	131624
#	134740
#	145265
#	164685
#	182910
#	196805
#	212420
#	231641
#	234595
#	259543
#	284125
#	310125
#	313070
#	335835
#
# Disc length: 4720 seconds
#
# Revision: 0
# Processed by: cddbd v1.5.2PL0 Copyright (c) Steve Scherf et al.
# Submitted via: CDex 1.70beta2
#
DISCID=58126e15
DTITLE=吾妻光良 and The Swinging Boppers - Sweatin' Ballroom
DYEAR=2009
DGENRE=Jazz
TTITLE0=Things Ain't What They Used to Be
TTITLE1=歳には勝てないぜ
TTITLE2=最後まで楽しもう
TTITLE3=顔のシワ
TTITLE4=しかしまあ何だなあ
TTITLE5=バッチグー
TTITLE6=Let Your Hair Down ～登場Theme～
TTITLE7=I Can Dream, Can't I
TTITLE8=Do You Ever Think of Me ～退場Theme～
TTITLE9=道徳 HOP
TTITLE10=Big 盆 Boogie
TTITLE11=極楽パパ
TTITLE12=飲むのはやめとこう～登場Theme～
TTITLE13=Just a Gigolo ～ I Ain't Got Nobody
TTITLE14=Latin medley of the fascination: 嫁の里帰り～誰がマンボに“ウッ!!”をつけた
TTITLE15=知らぬまに心さわぐ“You Brought New Kind of Love”～退場Theme～
TTITLE16=高田馬場へ“Loosiana”
TTITLE17=ほんじゃね
TTITLE18=秘密のトラック１
TTITLE19=秘密のトラック２
TTITLE20=秘密のトラック３
EXTD=YEAR: 2009
EXTT0=
EXTT1=
EXTT2=
EXTT3=
EXTT4=
EXTT5=
EXTT6=
EXTT7=
EXTT8=
EXTT9=
EXTT10=
EXTT11=
EXTT12=
EXTT13=
EXTT14=
EXTT15=
EXTT16=
EXTT17=
EXTT18=
EXTT19=
EXTT20=
PLAYORDER=
